<mxfile host="app.diagrams.net" modified="2023-01-18T02:51:31.798Z" agent="5.0 (Windows NT 10.0; Win64; x64) AppleWebKit/537.36 (KHTML, like Gecko) Chrome/109.0.0.0 Safari/537.36" etag="S_VkHdSD-boTx9cgfJ7S" version="20.8.5" type="github">
  <diagram id="YgXkvM1spwsMyHiy0HTY" name="第 1 页">
    <mxGraphModel dx="2261" dy="1925" grid="1" gridSize="10" guides="1" tooltips="1" connect="1" arrows="1" fold="1" page="1" pageScale="1" pageWidth="827" pageHeight="1169" math="0" shadow="0">
      <root>
        <mxCell id="0" />
        <mxCell id="1" parent="0" />
        <mxCell id="lxjhHM5LsJGWprdUG9pK-1" value="" style="shape=actor;whiteSpace=wrap;html=1;fillColor=#dae8fc;strokeColor=#6c8ebf;" parent="1" vertex="1">
          <mxGeometry x="30" y="67.5" width="40" height="60" as="geometry" />
        </mxCell>
        <mxCell id="lxjhHM5LsJGWprdUG9pK-4" value="" style="aspect=fixed;perimeter=ellipsePerimeter;html=1;align=center;shadow=0;dashed=0;spacingTop=3;image;image=img/lib/active_directory/home_page.svg;" parent="1" vertex="1">
          <mxGeometry x="230" y="83.75" width="63.89" height="57.5" as="geometry" />
        </mxCell>
        <mxCell id="lxjhHM5LsJGWprdUG9pK-8" value="" style="shape=image;html=1;verticalAlign=top;verticalLabelPosition=bottom;labelBackgroundColor=#ffffff;imageAspect=0;aspect=fixed;image=https://cdn4.iconfinder.com/data/icons/evil-icons-user-interface/64/picture-128.png" parent="1" vertex="1">
          <mxGeometry x="90" y="40" width="80" height="80" as="geometry" />
        </mxCell>
        <mxCell id="lxjhHM5LsJGWprdUG9pK-28" value="" style="html=1;verticalLabelPosition=bottom;align=center;labelBackgroundColor=#ffffff;verticalAlign=top;strokeWidth=2;strokeColor=#0080F0;shadow=0;dashed=0;shape=mxgraph.ios7.icons.messages;" parent="1" vertex="1">
          <mxGeometry x="97.5" y="127.5" width="65" height="50" as="geometry" />
        </mxCell>
        <mxCell id="lxjhHM5LsJGWprdUG9pK-35" value="" style="outlineConnect=0;dashed=0;verticalLabelPosition=bottom;verticalAlign=top;align=center;html=1;shape=mxgraph.aws3.s3;fillColor=#E05243;gradientColor=none;" parent="1" vertex="1">
          <mxGeometry x="500" y="-20" width="70" height="75.5" as="geometry" />
        </mxCell>
        <mxCell id="lxjhHM5LsJGWprdUG9pK-36" value="" style="outlineConnect=0;dashed=0;verticalLabelPosition=bottom;verticalAlign=top;align=center;html=1;shape=mxgraph.aws3.rds;fillColor=#2E73B8;gradientColor=none;" parent="1" vertex="1">
          <mxGeometry x="670" y="89" width="72" height="81" as="geometry" />
        </mxCell>
        <mxCell id="lxjhHM5LsJGWprdUG9pK-38" value="" style="editableCssRules=.*;shape=image;verticalLabelPosition=bottom;labelBackgroundColor=#ffffff;verticalAlign=top;aspect=fixed;imageAspect=0;image=data:image/svg+xml,PHN2ZyB4bWxucz0iaHR0cDovL3d3dy53My5vcmcvMjAwMC9zdmciIHhtbG5zOnY9Imh0dHBzOi8vdmVjdGEuaW8vbmFubyIgd2lkdGg9IjIwIiBoZWlnaHQ9IjIwIiB2aWV3Qm94PSIwIDAgMjAgMjAiPiYjeGE7CTxzdHlsZSB0eXBlPSJ0ZXh0L2NzcyI+JiN4YTsJLnN0MHtmaWxsOiM0Mjg1ZjQ7fSYjeGE7CS5zdDF7ZmlsbDojNjY5ZGY2O30mI3hhOwkuc3Qye2ZpbGw6I2FlY2JmYTt9JiN4YTsJPC9zdHlsZT4mI3hhOwk8cGF0aCBjbGFzcz0ic3QxIiBkPSJNMTMuMTMgNS42M1YzLjIxTDEwIDB2Mi40MXptMy43NSA3LjVMMjAgMTBoLTIuNWwtMy4xMiAzLjEzem0tMTMuNzUgMEwwIDEwaDIuNWwzLjEzIDMuMTN6bTEwIDEuMjV2Mi40MUwxMCAyMHYtMi40MXoiIGZpbGwtcnVsZT0iZXZlbm9kZCIvPiYjeGE7CTxwYXRoIGNsYXNzPSJzdDIiIGQ9Ik02Ljg4IDUuNjNMMTAgMi40MVYwTDYuODggMy4yMXpNMTcuNSAxMEgyMGwtMy4xMi0zLjEyaC0yLjV6bS0xNSAwSDBsMy4xMy0zLjEyaDIuNXptNC4zOCA0LjM4TDEwIDE3LjU5VjIwbC0zLjEyLTMuMjF6bTAtNy41aDYuMjV2Ni4yNUg2Ljg4eiIgZmlsbC1ydWxlPSJldmVub2RkIi8+JiN4YTsJPHBhdGggY2xhc3M9InN0MSIgZD0iTTYuODggMTMuMTNsNi4yNS02LjI1djYuMjV6IiBmaWxsLXJ1bGU9ImV2ZW5vZGQiLz4mI3hhOwk8cGF0aCBjbGFzcz0ic3QwIiBkPSJNMTAgMTBsMy4xMy0zLjEydjYuMjV6IiBmaWxsLXJ1bGU9ImV2ZW5vZGQiLz4mI3hhOzwvc3ZnPg==;" parent="1" vertex="1">
          <mxGeometry x="661" y="-130" width="90" height="90" as="geometry" />
        </mxCell>
        <mxCell id="lxjhHM5LsJGWprdUG9pK-39" value="" style="endArrow=classic;html=1;rounded=0;" parent="1" edge="1">
          <mxGeometry width="50" height="50" relative="1" as="geometry">
            <mxPoint x="420" y="89" as="sourcePoint" />
            <mxPoint x="480" y="49" as="targetPoint" />
          </mxGeometry>
        </mxCell>
        <mxCell id="lxjhHM5LsJGWprdUG9pK-40" value="" style="endArrow=classic;html=1;rounded=0;" parent="1" edge="1">
          <mxGeometry width="50" height="50" relative="1" as="geometry">
            <mxPoint x="580" y="10" as="sourcePoint" />
            <mxPoint x="660" y="80" as="targetPoint" />
          </mxGeometry>
        </mxCell>
        <mxCell id="lxjhHM5LsJGWprdUG9pK-41" value="" style="endArrow=classic;html=1;rounded=0;" parent="1" edge="1">
          <mxGeometry width="50" height="50" relative="1" as="geometry">
            <mxPoint x="414" y="129" as="sourcePoint" />
            <mxPoint x="650" y="150" as="targetPoint" />
          </mxGeometry>
        </mxCell>
        <mxCell id="lxjhHM5LsJGWprdUG9pK-42" value="" style="endArrow=classic;html=1;rounded=0;" parent="1" edge="1">
          <mxGeometry width="50" height="50" relative="1" as="geometry">
            <mxPoint x="590" y="-20" as="sourcePoint" />
            <mxPoint x="640" y="-70" as="targetPoint" />
          </mxGeometry>
        </mxCell>
        <mxCell id="lxjhHM5LsJGWprdUG9pK-43" value="picture" style="text;html=1;strokeColor=none;fillColor=none;align=center;verticalAlign=middle;whiteSpace=wrap;rounded=0;" parent="1" vertex="1">
          <mxGeometry x="170" y="67.5" width="60" height="30" as="geometry" />
        </mxCell>
        <mxCell id="lxjhHM5LsJGWprdUG9pK-44" value="message" style="text;html=1;strokeColor=none;fillColor=none;align=center;verticalAlign=middle;whiteSpace=wrap;rounded=0;" parent="1" vertex="1">
          <mxGeometry x="170" y="133.75" width="60" height="30" as="geometry" />
        </mxCell>
        <mxCell id="lxjhHM5LsJGWprdUG9pK-45" value="picture" style="text;html=1;strokeColor=none;fillColor=none;align=center;verticalAlign=middle;whiteSpace=wrap;rounded=0;" parent="1" vertex="1">
          <mxGeometry x="420" y="20" width="60" height="30" as="geometry" />
        </mxCell>
        <mxCell id="lxjhHM5LsJGWprdUG9pK-46" value="URL of picture" style="text;html=1;strokeColor=none;fillColor=none;align=center;verticalAlign=middle;whiteSpace=wrap;rounded=0;" parent="1" vertex="1">
          <mxGeometry x="602" y="30" width="140" height="30" as="geometry" />
        </mxCell>
        <mxCell id="lxjhHM5LsJGWprdUG9pK-47" value="RDS" style="text;strokeColor=none;fillColor=none;html=1;fontSize=24;fontStyle=1;verticalAlign=middle;align=center;" parent="1" vertex="1">
          <mxGeometry x="661" y="190" width="100" height="40" as="geometry" />
        </mxCell>
        <mxCell id="lxjhHM5LsJGWprdUG9pK-48" value="CDN" style="text;strokeColor=none;fillColor=none;html=1;fontSize=24;fontStyle=1;verticalAlign=middle;align=center;" parent="1" vertex="1">
          <mxGeometry x="656" y="-40" width="100" height="40" as="geometry" />
        </mxCell>
        <mxCell id="lxjhHM5LsJGWprdUG9pK-49" value="S3" style="text;strokeColor=none;fillColor=none;html=1;fontSize=24;fontStyle=1;verticalAlign=middle;align=center;" parent="1" vertex="1">
          <mxGeometry x="485" y="67.5" width="100" height="40" as="geometry" />
        </mxCell>
        <mxCell id="lxjhHM5LsJGWprdUG9pK-50" value="picture" style="text;html=1;strokeColor=none;fillColor=none;align=center;verticalAlign=middle;whiteSpace=wrap;rounded=0;" parent="1" vertex="1">
          <mxGeometry x="560" y="-70" width="60" height="30" as="geometry" />
        </mxCell>
        <mxCell id="lxjhHM5LsJGWprdUG9pK-51" value="message" style="text;html=1;strokeColor=none;fillColor=none;align=center;verticalAlign=middle;whiteSpace=wrap;rounded=0;" parent="1" vertex="1">
          <mxGeometry x="510" y="150" width="60" height="30" as="geometry" />
        </mxCell>
        <mxCell id="lxjhHM5LsJGWprdUG9pK-52" value="" style="outlineConnect=0;dashed=0;verticalLabelPosition=bottom;verticalAlign=top;align=center;html=1;shape=mxgraph.aws3.rds;fillColor=#2E73B8;gradientColor=none;" parent="1" vertex="1">
          <mxGeometry x="60" y="230.5" width="72" height="81" as="geometry" />
        </mxCell>
        <mxCell id="lxjhHM5LsJGWprdUG9pK-53" value="RDS" style="text;strokeColor=none;fillColor=none;html=1;fontSize=24;fontStyle=1;verticalAlign=middle;align=center;" parent="1" vertex="1">
          <mxGeometry x="46" y="450" width="100" height="40" as="geometry" />
        </mxCell>
        <mxCell id="lxjhHM5LsJGWprdUG9pK-54" value="URL of picture" style="text;html=1;strokeColor=none;fillColor=none;align=center;verticalAlign=middle;whiteSpace=wrap;rounded=0;" parent="1" vertex="1">
          <mxGeometry x="160" y="236" width="140" height="30" as="geometry" />
        </mxCell>
        <mxCell id="lxjhHM5LsJGWprdUG9pK-55" value="" style="endArrow=classic;html=1;rounded=0;" parent="1" edge="1">
          <mxGeometry width="50" height="50" relative="1" as="geometry">
            <mxPoint x="165" y="276" as="sourcePoint" />
            <mxPoint x="295" y="275.6300000000001" as="targetPoint" />
            <Array as="points">
              <mxPoint x="175" y="276" />
            </Array>
          </mxGeometry>
        </mxCell>
        <mxCell id="lxjhHM5LsJGWprdUG9pK-56" value="" style="editableCssRules=.*;shape=image;verticalLabelPosition=bottom;labelBackgroundColor=#ffffff;verticalAlign=top;aspect=fixed;imageAspect=0;image=data:image/svg+xml,PHN2ZyB4bWxucz0iaHR0cDovL3d3dy53My5vcmcvMjAwMC9zdmciIHhtbG5zOnY9Imh0dHBzOi8vdmVjdGEuaW8vbmFubyIgd2lkdGg9IjIwIiBoZWlnaHQ9IjIwIiB2aWV3Qm94PSIwIDAgMjAgMjAiPiYjeGE7CTxzdHlsZSB0eXBlPSJ0ZXh0L2NzcyI+JiN4YTsJLnN0MHtmaWxsOiM0Mjg1ZjQ7fSYjeGE7CS5zdDF7ZmlsbDojNjY5ZGY2O30mI3hhOwkuc3Qye2ZpbGw6I2FlY2JmYTt9JiN4YTsJPC9zdHlsZT4mI3hhOwk8cGF0aCBjbGFzcz0ic3QxIiBkPSJNMTMuMTMgNS42M1YzLjIxTDEwIDB2Mi40MXptMy43NSA3LjVMMjAgMTBoLTIuNWwtMy4xMiAzLjEzem0tMTMuNzUgMEwwIDEwaDIuNWwzLjEzIDMuMTN6bTEwIDEuMjV2Mi40MUwxMCAyMHYtMi40MXoiIGZpbGwtcnVsZT0iZXZlbm9kZCIvPiYjeGE7CTxwYXRoIGNsYXNzPSJzdDIiIGQ9Ik02Ljg4IDUuNjNMMTAgMi40MVYwTDYuODggMy4yMXpNMTcuNSAxMEgyMGwtMy4xMi0zLjEyaC0yLjV6bS0xNSAwSDBsMy4xMy0zLjEyaDIuNXptNC4zOCA0LjM4TDEwIDE3LjU5VjIwbC0zLjEyLTMuMjF6bTAtNy41aDYuMjV2Ni4yNUg2Ljg4eiIgZmlsbC1ydWxlPSJldmVub2RkIi8+JiN4YTsJPHBhdGggY2xhc3M9InN0MSIgZD0iTTYuODggMTMuMTNsNi4yNS02LjI1djYuMjV6IiBmaWxsLXJ1bGU9ImV2ZW5vZGQiLz4mI3hhOwk8cGF0aCBjbGFzcz0ic3QwIiBkPSJNMTAgMTBsMy4xMy0zLjEydjYuMjV6IiBmaWxsLXJ1bGU9ImV2ZW5vZGQiLz4mI3hhOzwvc3ZnPg==;" parent="1" vertex="1">
          <mxGeometry x="330" y="226" width="90" height="90" as="geometry" />
        </mxCell>
        <mxCell id="lxjhHM5LsJGWprdUG9pK-57" value="CDN" style="text;strokeColor=none;fillColor=none;html=1;fontSize=24;fontStyle=1;verticalAlign=middle;align=center;" parent="1" vertex="1">
          <mxGeometry x="325" y="316" width="100" height="40" as="geometry" />
        </mxCell>
        <mxCell id="lxjhHM5LsJGWprdUG9pK-61" value="" style="endArrow=classic;html=1;rounded=0;" parent="1" edge="1">
          <mxGeometry width="50" height="50" relative="1" as="geometry">
            <mxPoint x="125" y="316" as="sourcePoint" />
            <mxPoint x="300" y="466" as="targetPoint" />
            <Array as="points">
              <mxPoint x="135" y="316" />
            </Array>
          </mxGeometry>
        </mxCell>
        <mxCell id="lxjhHM5LsJGWprdUG9pK-62" value="" style="aspect=fixed;perimeter=ellipsePerimeter;html=1;align=center;shadow=0;dashed=0;spacingTop=3;image;image=img/lib/active_directory/home_page.svg;" parent="1" vertex="1">
          <mxGeometry x="340" y="646" width="63.89" height="57.5" as="geometry" />
        </mxCell>
        <mxCell id="lxjhHM5LsJGWprdUG9pK-63" value="" style="shape=image;html=1;verticalAlign=top;verticalLabelPosition=bottom;labelBackgroundColor=#ffffff;imageAspect=0;aspect=fixed;image=https://cdn4.iconfinder.com/data/icons/evil-icons-user-interface/64/picture-128.png" parent="1" vertex="1">
          <mxGeometry x="420" y="226" width="80" height="80" as="geometry" />
        </mxCell>
        <mxCell id="lxjhHM5LsJGWprdUG9pK-64" value="" style="html=1;verticalLabelPosition=bottom;align=center;labelBackgroundColor=#ffffff;verticalAlign=top;strokeWidth=2;strokeColor=#0080F0;shadow=0;dashed=0;shape=mxgraph.ios7.icons.messages;" parent="1" vertex="1">
          <mxGeometry x="81" y="356" width="65" height="50" as="geometry" />
        </mxCell>
        <mxCell id="lxjhHM5LsJGWprdUG9pK-65" value="message" style="text;html=1;strokeColor=none;fillColor=none;align=center;verticalAlign=middle;whiteSpace=wrap;rounded=0;" parent="1" vertex="1">
          <mxGeometry x="160" y="386" width="60" height="30" as="geometry" />
        </mxCell>
        <mxCell id="lxjhHM5LsJGWprdUG9pK-66" value="" style="endArrow=classic;html=1;rounded=0;" parent="1" source="lxjhHM5LsJGWprdUG9pK-63" edge="1">
          <mxGeometry width="50" height="50" relative="1" as="geometry">
            <mxPoint x="485" y="306" as="sourcePoint" />
            <mxPoint x="385" y="426" as="targetPoint" />
          </mxGeometry>
        </mxCell>
        <mxCell id="lxjhHM5LsJGWprdUG9pK-68" value="picture" style="text;html=1;strokeColor=none;fillColor=none;align=center;verticalAlign=middle;whiteSpace=wrap;rounded=0;" parent="1" vertex="1">
          <mxGeometry x="450" y="296" width="60" height="30" as="geometry" />
        </mxCell>
        <mxCell id="lxjhHM5LsJGWprdUG9pK-69" value="" style="shape=actor;whiteSpace=wrap;html=1;fillColor=#dae8fc;strokeColor=#6c8ebf;" parent="1" vertex="1">
          <mxGeometry x="570" y="636" width="40" height="60" as="geometry" />
        </mxCell>
        <mxCell id="lxjhHM5LsJGWprdUG9pK-70" value="" style="endArrow=classic;html=1;rounded=0;" parent="1" edge="1">
          <mxGeometry width="50" height="50" relative="1" as="geometry">
            <mxPoint x="420" y="666.62" as="sourcePoint" />
            <mxPoint x="550" y="666.2500000000001" as="targetPoint" />
            <Array as="points">
              <mxPoint x="430" y="666.62" />
              <mxPoint x="486" y="666" />
            </Array>
          </mxGeometry>
        </mxCell>
        <mxCell id="lxjhHM5LsJGWprdUG9pK-72" value="" style="aspect=fixed;perimeter=ellipsePerimeter;html=1;align=center;shadow=0;dashed=0;spacingTop=3;image;image=img/lib/active_directory/windows_server.svg;" parent="1" vertex="1">
          <mxGeometry x="373.89" y="83.75" width="41" height="50" as="geometry" />
        </mxCell>
        <mxCell id="lxjhHM5LsJGWprdUG9pK-73" value="" style="endArrow=classic;html=1;rounded=0;" parent="1" edge="1">
          <mxGeometry width="50" height="50" relative="1" as="geometry">
            <mxPoint x="293.89" y="119" as="sourcePoint" />
            <mxPoint x="373.89" y="119.13" as="targetPoint" />
            <Array as="points">
              <mxPoint x="303.89" y="119" />
              <mxPoint x="363.89" y="119.13" />
            </Array>
          </mxGeometry>
        </mxCell>
        <mxCell id="lxjhHM5LsJGWprdUG9pK-74" value="" style="outlineConnect=0;dashed=0;verticalLabelPosition=bottom;verticalAlign=top;align=center;html=1;shape=mxgraph.aws3.android;fillColor=#8CC64F;gradientColor=none;" parent="1" vertex="1">
          <mxGeometry x="373.89" y="129.75" width="46.11" height="47.75" as="geometry" />
        </mxCell>
        <mxCell id="lxjhHM5LsJGWprdUG9pK-75" value="Node.js" style="text;html=1;strokeColor=none;fillColor=none;align=center;verticalAlign=middle;whiteSpace=wrap;rounded=0;" parent="1" vertex="1">
          <mxGeometry x="373.89" y="180" width="60" height="30" as="geometry" />
        </mxCell>
        <mxCell id="xbC7B3FpnLvXOkiKt3xT-21" value="" style="edgeStyle=orthogonalEdgeStyle;rounded=0;orthogonalLoop=1;jettySize=auto;html=1;" edge="1" parent="1" source="lxjhHM5LsJGWprdUG9pK-77" target="lxjhHM5LsJGWprdUG9pK-78">
          <mxGeometry relative="1" as="geometry" />
        </mxCell>
        <mxCell id="lxjhHM5LsJGWprdUG9pK-77" value="" style="aspect=fixed;perimeter=ellipsePerimeter;html=1;align=center;shadow=0;dashed=0;spacingTop=3;image;image=img/lib/active_directory/windows_server.svg;" parent="1" vertex="1">
          <mxGeometry x="320" y="451" width="41" height="50" as="geometry" />
        </mxCell>
        <mxCell id="lxjhHM5LsJGWprdUG9pK-78" value="" style="outlineConnect=0;dashed=0;verticalLabelPosition=bottom;verticalAlign=top;align=center;html=1;shape=mxgraph.aws3.android;fillColor=#8CC64F;gradientColor=none;" parent="1" vertex="1">
          <mxGeometry x="368.78" y="451" width="46.11" height="47.75" as="geometry" />
        </mxCell>
        <mxCell id="lxjhHM5LsJGWprdUG9pK-79" value="Node.js" style="text;html=1;strokeColor=none;fillColor=none;align=center;verticalAlign=middle;whiteSpace=wrap;rounded=0;" parent="1" vertex="1">
          <mxGeometry x="343.89" y="498.75" width="60" height="30" as="geometry" />
        </mxCell>
        <mxCell id="xbC7B3FpnLvXOkiKt3xT-23" value="" style="edgeStyle=orthogonalEdgeStyle;rounded=0;orthogonalLoop=1;jettySize=auto;html=1;" edge="1" parent="1" source="lxjhHM5LsJGWprdUG9pK-80" target="lxjhHM5LsJGWprdUG9pK-79">
          <mxGeometry relative="1" as="geometry" />
        </mxCell>
        <mxCell id="lxjhHM5LsJGWprdUG9pK-80" value="SERVER" style="text;html=1;strokeColor=none;fillColor=none;align=center;verticalAlign=middle;whiteSpace=wrap;rounded=0;" parent="1" vertex="1">
          <mxGeometry x="330" y="426" width="60" height="30" as="geometry" />
        </mxCell>
        <mxCell id="lxjhHM5LsJGWprdUG9pK-81" value="SERVER" style="text;html=1;strokeColor=none;fillColor=none;align=center;verticalAlign=middle;whiteSpace=wrap;rounded=0;" parent="1" vertex="1">
          <mxGeometry x="320" y="89" width="60" height="30" as="geometry" />
        </mxCell>
        <mxCell id="lxjhHM5LsJGWprdUG9pK-82" value="" style="endArrow=classic;html=1;rounded=0;" parent="1" edge="1">
          <mxGeometry width="50" height="50" relative="1" as="geometry">
            <mxPoint x="360" y="536" as="sourcePoint" />
            <mxPoint x="360" y="636" as="targetPoint" />
          </mxGeometry>
        </mxCell>
        <mxCell id="xbC7B3FpnLvXOkiKt3xT-2" value="" style="outlineConnect=0;dashed=0;verticalLabelPosition=bottom;verticalAlign=top;align=center;html=1;shape=mxgraph.aws3.rds;fillColor=#2E73B8;gradientColor=none;" vertex="1" parent="1">
          <mxGeometry x="710" y="1300" width="72" height="81" as="geometry" />
        </mxCell>
        <mxCell id="xbC7B3FpnLvXOkiKt3xT-3" value="RDS" style="text;strokeColor=none;fillColor=none;html=1;fontSize=24;fontStyle=1;verticalAlign=middle;align=center;" vertex="1" parent="1">
          <mxGeometry x="710" y="1390" width="100" height="50" as="geometry" />
        </mxCell>
        <mxCell id="xbC7B3FpnLvXOkiKt3xT-4" value="EC2 instance&amp;nbsp;" style="points=[[0,0],[0.25,0],[0.5,0],[0.75,0],[1,0],[1,0.25],[1,0.5],[1,0.75],[1,1],[0.75,1],[0.5,1],[0.25,1],[0,1],[0,0.75],[0,0.5],[0,0.25]];outlineConnect=0;gradientColor=none;html=1;whiteSpace=wrap;fontSize=12;fontStyle=0;container=1;pointerEvents=0;collapsible=0;recursiveResize=0;shape=mxgraph.aws4.group;grIcon=mxgraph.aws4.group_ec2_instance_contents;strokeColor=#D86613;fillColor=none;verticalAlign=top;align=left;spacingLeft=30;fontColor=#D86613;dashed=0;" vertex="1" parent="1">
          <mxGeometry x="315" y="30" width="115" height="195.75" as="geometry" />
        </mxCell>
        <mxCell id="xbC7B3FpnLvXOkiKt3xT-5" value="EC2 instance&amp;nbsp;" style="points=[[0,0],[0.25,0],[0.5,0],[0.75,0],[1,0],[1,0.25],[1,0.5],[1,0.75],[1,1],[0.75,1],[0.5,1],[0.25,1],[0,1],[0,0.75],[0,0.5],[0,0.25]];outlineConnect=0;gradientColor=none;html=1;whiteSpace=wrap;fontSize=12;fontStyle=0;container=1;pointerEvents=0;collapsible=0;recursiveResize=0;shape=mxgraph.aws4.group;grIcon=mxgraph.aws4.group_ec2_instance_contents;strokeColor=#D86613;fillColor=none;verticalAlign=top;align=left;spacingLeft=30;fontColor=#D86613;dashed=0;" vertex="1" parent="1">
          <mxGeometry x="292.5" y="378.13" width="115" height="195.75" as="geometry" />
        </mxCell>
        <mxCell id="xbC7B3FpnLvXOkiKt3xT-9" value="" style="outlineConnect=0;dashed=0;verticalLabelPosition=bottom;verticalAlign=top;align=center;html=1;shape=mxgraph.aws3.ec2;fillColor=#F58534;gradientColor=none;" vertex="1" parent="1">
          <mxGeometry x="260" y="344.5" width="60" height="73" as="geometry" />
        </mxCell>
        <mxCell id="xbC7B3FpnLvXOkiKt3xT-10" value="" style="outlineConnect=0;dashed=0;verticalLabelPosition=bottom;verticalAlign=top;align=center;html=1;shape=mxgraph.aws3.ec2;fillColor=#F58534;gradientColor=none;" vertex="1" parent="1">
          <mxGeometry x="278.5" y="2.88" width="61.5" height="64.25" as="geometry" />
        </mxCell>
        <mxCell id="xbC7B3FpnLvXOkiKt3xT-12" value="EC2" style="text;strokeColor=none;fillColor=none;html=1;fontSize=24;fontStyle=1;verticalAlign=middle;align=center;" vertex="1" parent="1">
          <mxGeometry x="470" y="1373" width="100" height="40" as="geometry" />
        </mxCell>
        <mxCell id="xbC7B3FpnLvXOkiKt3xT-13" value="EC2" style="text;strokeColor=none;fillColor=none;html=1;fontSize=24;fontStyle=1;verticalAlign=middle;align=center;" vertex="1" parent="1">
          <mxGeometry x="469.03" y="1140" width="100" height="40" as="geometry" />
        </mxCell>
        <mxCell id="xbC7B3FpnLvXOkiKt3xT-14" value="" style="outlineConnect=0;dashed=0;verticalLabelPosition=bottom;verticalAlign=top;align=center;html=1;shape=mxgraph.aws3.s3;fillColor=#E05243;gradientColor=none;" vertex="1" parent="1">
          <mxGeometry x="253.5" y="1547" width="76.5" height="93" as="geometry" />
        </mxCell>
        <mxCell id="xbC7B3FpnLvXOkiKt3xT-15" value="" style="verticalLabelPosition=bottom;html=1;verticalAlign=top;strokeWidth=1;align=center;outlineConnect=0;dashed=0;outlineConnect=0;shape=mxgraph.aws3d.elasticLoadBalancing;fillColor=#ECECEC;strokeColor=#5E5E5E;aspect=fixed;" vertex="1" parent="1">
          <mxGeometry x="176.78" y="1300.0000000000002" width="92" height="88.17" as="geometry" />
        </mxCell>
        <mxCell id="xbC7B3FpnLvXOkiKt3xT-16" value="EC2 instance&amp;nbsp;" style="points=[[0,0],[0.25,0],[0.5,0],[0.75,0],[1,0],[1,0.25],[1,0.5],[1,0.75],[1,1],[0.75,1],[0.5,1],[0.25,1],[0,1],[0,0.75],[0,0.5],[0,0.25]];outlineConnect=0;gradientColor=none;html=1;whiteSpace=wrap;fontSize=12;fontStyle=0;container=1;pointerEvents=0;collapsible=0;recursiveResize=0;shape=mxgraph.aws4.group;grIcon=mxgraph.aws4.group_ec2_instance_contents;strokeColor=#D86613;fillColor=none;verticalAlign=top;align=left;spacingLeft=30;fontColor=#D86613;dashed=0;" vertex="1" parent="1">
          <mxGeometry x="407.5" y="1180" width="225.55999999999995" height="193" as="geometry" />
        </mxCell>
        <mxCell id="xbC7B3FpnLvXOkiKt3xT-25" value="WEB APP" style="text;strokeColor=none;fillColor=none;html=1;fontSize=24;fontStyle=1;verticalAlign=middle;align=center;" vertex="1" parent="xbC7B3FpnLvXOkiKt3xT-16">
          <mxGeometry x="112.49999999999994" y="40" width="100" height="40" as="geometry" />
        </mxCell>
        <mxCell id="xbC7B3FpnLvXOkiKt3xT-29" value="NGINX" style="text;strokeColor=none;fillColor=none;html=1;fontSize=24;fontStyle=1;verticalAlign=middle;align=center;" vertex="1" parent="xbC7B3FpnLvXOkiKt3xT-16">
          <mxGeometry y="120" width="82.5" height="30" as="geometry" />
        </mxCell>
        <mxCell id="xbC7B3FpnLvXOkiKt3xT-43" value="" style="endArrow=classic;html=1;rounded=0;exitX=0.5;exitY=0;exitDx=0;exitDy=0;" edge="1" parent="xbC7B3FpnLvXOkiKt3xT-16" source="xbC7B3FpnLvXOkiKt3xT-29">
          <mxGeometry width="50" height="50" relative="1" as="geometry">
            <mxPoint x="22.5" y="98.38999999999987" as="sourcePoint" />
            <mxPoint x="102.5" y="70" as="targetPoint" />
          </mxGeometry>
        </mxCell>
        <mxCell id="xbC7B3FpnLvXOkiKt3xT-17" value="EC2 instance&amp;nbsp;" style="points=[[0,0],[0.25,0],[0.5,0],[0.75,0],[1,0],[1,0.25],[1,0.5],[1,0.75],[1,1],[0.75,1],[0.5,1],[0.25,1],[0,1],[0,0.75],[0,0.5],[0,0.25]];outlineConnect=0;gradientColor=none;html=1;whiteSpace=wrap;fontSize=12;fontStyle=0;container=1;pointerEvents=0;collapsible=0;recursiveResize=0;shape=mxgraph.aws4.group;grIcon=mxgraph.aws4.group_ec2_instance_contents;strokeColor=#D86613;fillColor=none;verticalAlign=top;align=left;spacingLeft=30;fontColor=#D86613;dashed=0;" vertex="1" parent="1">
          <mxGeometry x="407.5" y="1407" width="223.06" height="193" as="geometry" />
        </mxCell>
        <mxCell id="xbC7B3FpnLvXOkiKt3xT-11" value="" style="outlineConnect=0;dashed=0;verticalLabelPosition=bottom;verticalAlign=top;align=center;html=1;shape=mxgraph.aws3.ec2;fillColor=#F58534;gradientColor=none;" vertex="1" parent="xbC7B3FpnLvXOkiKt3xT-17">
          <mxGeometry x="-49.870000000000005" y="-27" width="76.5" height="93" as="geometry" />
        </mxCell>
        <mxCell id="xbC7B3FpnLvXOkiKt3xT-26" value="WEB APP" style="text;strokeColor=none;fillColor=none;html=1;fontSize=24;fontStyle=1;verticalAlign=middle;align=center;" vertex="1" parent="xbC7B3FpnLvXOkiKt3xT-17">
          <mxGeometry x="112.5" y="36.5" width="100" height="40" as="geometry" />
        </mxCell>
        <mxCell id="xbC7B3FpnLvXOkiKt3xT-27" value="NGINX" style="text;strokeColor=none;fillColor=none;html=1;fontSize=24;fontStyle=1;verticalAlign=middle;align=center;" vertex="1" parent="xbC7B3FpnLvXOkiKt3xT-17">
          <mxGeometry x="-7.5" y="113" width="100" height="40" as="geometry" />
        </mxCell>
        <mxCell id="xbC7B3FpnLvXOkiKt3xT-44" value="" style="endArrow=classic;html=1;rounded=0;exitX=0.5;exitY=0;exitDx=0;exitDy=0;" edge="1" parent="xbC7B3FpnLvXOkiKt3xT-17">
          <mxGeometry width="50" height="50" relative="1" as="geometry">
            <mxPoint x="42.5" y="113" as="sourcePoint" />
            <mxPoint x="103.75" y="63" as="targetPoint" />
          </mxGeometry>
        </mxCell>
        <mxCell id="xbC7B3FpnLvXOkiKt3xT-18" value="" style="outlineConnect=0;dashed=0;verticalLabelPosition=bottom;verticalAlign=top;align=center;html=1;shape=mxgraph.aws3.ec2;fillColor=#F58534;gradientColor=none;" vertex="1" parent="1">
          <mxGeometry x="357.39" y="1150" width="76.5" height="93" as="geometry" />
        </mxCell>
        <mxCell id="xbC7B3FpnLvXOkiKt3xT-19" value="S3" style="text;strokeColor=none;fillColor=none;html=1;fontSize=24;fontStyle=1;verticalAlign=middle;align=center;" vertex="1" parent="1">
          <mxGeometry x="239.99999999999997" y="1640" width="100" height="40" as="geometry" />
        </mxCell>
        <mxCell id="xbC7B3FpnLvXOkiKt3xT-20" value="Load Balancer" style="text;strokeColor=none;fillColor=none;html=1;fontSize=24;fontStyle=1;verticalAlign=middle;align=center;" vertex="1" parent="1">
          <mxGeometry x="178.5" y="1400" width="100" height="40" as="geometry" />
        </mxCell>
        <mxCell id="xbC7B3FpnLvXOkiKt3xT-30" value="" style="endArrow=classic;html=1;rounded=0;" edge="1" parent="1">
          <mxGeometry width="50" height="50" relative="1" as="geometry">
            <mxPoint x="-10" y="1170" as="sourcePoint" />
            <mxPoint x="110" y="1310" as="targetPoint" />
          </mxGeometry>
        </mxCell>
        <mxCell id="xbC7B3FpnLvXOkiKt3xT-32" value="" style="endArrow=classic;html=1;rounded=0;" edge="1" parent="1">
          <mxGeometry width="50" height="50" relative="1" as="geometry">
            <mxPoint x="-70" y="1250" as="sourcePoint" />
            <mxPoint x="60" y="1330" as="targetPoint" />
          </mxGeometry>
        </mxCell>
        <mxCell id="xbC7B3FpnLvXOkiKt3xT-33" value="" style="endArrow=classic;html=1;rounded=0;" edge="1" parent="1">
          <mxGeometry width="50" height="50" relative="1" as="geometry">
            <mxPoint x="-80" y="1370" as="sourcePoint" />
            <mxPoint x="60" y="1370" as="targetPoint" />
          </mxGeometry>
        </mxCell>
        <mxCell id="xbC7B3FpnLvXOkiKt3xT-34" value="" style="endArrow=classic;html=1;rounded=0;" edge="1" parent="1">
          <mxGeometry width="50" height="50" relative="1" as="geometry">
            <mxPoint x="-50" y="1490" as="sourcePoint" />
            <mxPoint x="90" y="1450" as="targetPoint" />
          </mxGeometry>
        </mxCell>
        <mxCell id="xbC7B3FpnLvXOkiKt3xT-35" value="" style="endArrow=classic;html=1;rounded=0;" edge="1" parent="1">
          <mxGeometry width="50" height="50" relative="1" as="geometry">
            <mxPoint x="10" y="1600" as="sourcePoint" />
            <mxPoint x="110" y="1490" as="targetPoint" />
          </mxGeometry>
        </mxCell>
        <mxCell id="xbC7B3FpnLvXOkiKt3xT-36" value="Users" style="sketch=0;outlineConnect=0;fontColor=#232F3E;gradientColor=none;strokeColor=#232F3E;fillColor=#ffffff;dashed=0;verticalLabelPosition=bottom;verticalAlign=top;align=center;html=1;fontSize=12;fontStyle=0;aspect=fixed;shape=mxgraph.aws4.resourceIcon;resIcon=mxgraph.aws4.users;" vertex="1" parent="1">
          <mxGeometry x="-150" y="1328.17" width="60" height="60" as="geometry" />
        </mxCell>
        <mxCell id="xbC7B3FpnLvXOkiKt3xT-37" value="Users" style="sketch=0;outlineConnect=0;fontColor=#232F3E;gradientColor=none;strokeColor=#232F3E;fillColor=#ffffff;dashed=0;verticalLabelPosition=bottom;verticalAlign=top;align=center;html=1;fontSize=12;fontStyle=0;aspect=fixed;shape=mxgraph.aws4.resourceIcon;resIcon=mxgraph.aws4.users;" vertex="1" parent="1">
          <mxGeometry x="-140" y="1450" width="60" height="60" as="geometry" />
        </mxCell>
        <mxCell id="xbC7B3FpnLvXOkiKt3xT-38" value="Users" style="sketch=0;outlineConnect=0;fontColor=#232F3E;gradientColor=none;strokeColor=#232F3E;fillColor=#ffffff;dashed=0;verticalLabelPosition=bottom;verticalAlign=top;align=center;html=1;fontSize=12;fontStyle=0;aspect=fixed;shape=mxgraph.aws4.resourceIcon;resIcon=mxgraph.aws4.users;" vertex="1" parent="1">
          <mxGeometry x="-60" y="1580" width="60" height="60" as="geometry" />
        </mxCell>
        <mxCell id="xbC7B3FpnLvXOkiKt3xT-39" value="Users" style="sketch=0;outlineConnect=0;fontColor=#232F3E;gradientColor=none;strokeColor=#232F3E;fillColor=#ffffff;dashed=0;verticalLabelPosition=bottom;verticalAlign=top;align=center;html=1;fontSize=12;fontStyle=0;aspect=fixed;shape=mxgraph.aws4.resourceIcon;resIcon=mxgraph.aws4.users;" vertex="1" parent="1">
          <mxGeometry x="-140" y="1190" width="60" height="60" as="geometry" />
        </mxCell>
        <mxCell id="xbC7B3FpnLvXOkiKt3xT-40" value="Users" style="sketch=0;outlineConnect=0;fontColor=#232F3E;gradientColor=none;strokeColor=#232F3E;fillColor=#ffffff;dashed=0;verticalLabelPosition=bottom;verticalAlign=top;align=center;html=1;fontSize=12;fontStyle=0;aspect=fixed;shape=mxgraph.aws4.resourceIcon;resIcon=mxgraph.aws4.users;" vertex="1" parent="1">
          <mxGeometry x="-70" y="1080" width="60" height="60" as="geometry" />
        </mxCell>
        <mxCell id="xbC7B3FpnLvXOkiKt3xT-41" value="" style="endArrow=classic;html=1;rounded=0;" edge="1" parent="1" target="xbC7B3FpnLvXOkiKt3xT-29">
          <mxGeometry width="50" height="50" relative="1" as="geometry">
            <mxPoint x="280" y="1320" as="sourcePoint" />
            <mxPoint x="250" y="1230" as="targetPoint" />
          </mxGeometry>
        </mxCell>
        <mxCell id="xbC7B3FpnLvXOkiKt3xT-42" value="" style="endArrow=classic;html=1;rounded=0;entryX=0;entryY=0.5;entryDx=0;entryDy=0;" edge="1" parent="1" target="xbC7B3FpnLvXOkiKt3xT-27">
          <mxGeometry width="50" height="50" relative="1" as="geometry">
            <mxPoint x="277.78" y="1383" as="sourcePoint" />
            <mxPoint x="380" y="1500" as="targetPoint" />
          </mxGeometry>
        </mxCell>
        <mxCell id="xbC7B3FpnLvXOkiKt3xT-45" value="" style="endArrow=classic;html=1;rounded=0;exitX=1;exitY=0.75;exitDx=0;exitDy=0;" edge="1" parent="1" source="xbC7B3FpnLvXOkiKt3xT-25">
          <mxGeometry width="50" height="50" relative="1" as="geometry">
            <mxPoint x="700" y="1470" as="sourcePoint" />
            <mxPoint x="700" y="1360" as="targetPoint" />
          </mxGeometry>
        </mxCell>
        <mxCell id="xbC7B3FpnLvXOkiKt3xT-46" value="" style="endArrow=classic;html=1;rounded=0;exitX=0.5;exitY=0;exitDx=0;exitDy=0;" edge="1" parent="1">
          <mxGeometry width="50" height="50" relative="1" as="geometry">
            <mxPoint x="630.56" y="1457" as="sourcePoint" />
            <mxPoint x="700" y="1390" as="targetPoint" />
          </mxGeometry>
        </mxCell>
        <mxCell id="xbC7B3FpnLvXOkiKt3xT-48" value="" style="endArrow=classic;html=1;rounded=0;entryX=1;entryY=0.79;entryDx=0;entryDy=0;entryPerimeter=0;" edge="1" parent="1" source="xbC7B3FpnLvXOkiKt3xT-17" target="xbC7B3FpnLvXOkiKt3xT-14">
          <mxGeometry width="50" height="50" relative="1" as="geometry">
            <mxPoint x="520" y="1680" as="sourcePoint" />
            <mxPoint x="581.25" y="1630" as="targetPoint" />
          </mxGeometry>
        </mxCell>
      </root>
    </mxGraphModel>
  </diagram>
</mxfile>
